<svg width="29" height="25" viewBox="0 0 29 25" fill="none" xmlns="http://www.w3.org/2000/svg">
<path fill-rule="evenodd" clip-rule="evenodd" d="M14.474 5.26329C18.1053 5.26329 21.0525 8.21047 21.0525 11.8417C21.0525 12.6972 20.8818 13.4996 20.5792 14.2497L24.4212 18.0917C26.4076 16.4339 27.9736 14.2891 28.9345 11.8417C26.6578 6.06571 21.0395 1.97339 14.4604 1.97339C12.6183 1.97339 10.8557 2.30252 9.22363 2.89481L12.0661 5.73658C12.8161 5.43398 13.6186 5.26329 14.474 5.26329V5.26329ZM1.31583 1.67079L4.92125 5.27622C2.73705 6.97353 1.02682 9.23662 0 11.8417C2.27668 17.6185 7.89495 21.7101 14.4741 21.7101C16.5134 21.7101 18.4603 21.3157 20.2372 20.6051L20.7894 21.1579L24.645 25L26.3158 23.3285L2.9873 0L1.31583 1.67079V1.67079ZM8.59203 8.9469L10.6321 10.9869C10.5661 11.263 10.5267 11.5527 10.5267 11.8417C10.5267 14.0259 12.2899 15.7892 14.4741 15.7892C14.7632 15.7892 15.0528 15.7497 15.3289 15.6838L17.369 17.7238C16.487 18.1577 15.5132 18.4208 14.4741 18.4208C10.8422 18.4208 7.89502 15.4737 7.89502 11.8417C7.89502 10.8027 8.15818 9.82888 8.59203 8.9469V8.9469ZM14.2634 7.92082L18.4081 12.0655L18.4346 11.8554C18.4346 9.67117 16.6714 7.9079 14.4872 7.9079L14.2634 7.92082V7.92082Z" fill="#0066F4"/>
</svg>
